HIERARCHY
ROOT Hips
{
	OFFSET	0.00	0.00	0.00
	CHANNELS 6 Xposition Yposition Zposition Zrotation Xrotation Yrotation
	JOINT Spine
	{
		OFFSET	 0.00	0.01	 0.00
		CHANNELS 3 Zrotation Xrotation Yrotation
		JOINT Spine1
		{
			OFFSET	 0.00	 2.45913012437421	 0.00
			CHANNELS 3 Zrotation Xrotation Yrotation
            JOINT Neck
            {
                OFFSET	 0.00	 2.48462964506057	 0.00
                CHANNELS 3 Zrotation Xrotation Yrotation
                JOINT Head
                {
                    OFFSET	 0.00	 0.927524780924562	 0.00
                    CHANNELS 3 Zrotation Xrotation Yrotation
                    End Site 
                    {
                        OFFSET	 0.00	 1.14999962169752	 0.00
                    }
                }
            }
			JOINT LeftShoulder
			{
				OFFSET	 0.00	 2.48462964506057	 0.00
				CHANNELS 3 Zrotation Xrotation Yrotation
				JOINT LeftUpArm
				{
					OFFSET	 0.00	 1.24881979654096	 0.00
					CHANNELS 3 Zrotation Xrotation Yrotation
					JOINT LeftForeArm
					{
						OFFSET	 0.00	2.59758046908119	 0.00
						CHANNELS 3 Zrotation Xrotation Yrotation
						JOINT LeftHand
						{
							OFFSET	 0.00	2.45542024364365	 0.00
							CHANNELS 3 Zrotation Xrotation Yrotation
							JOINT LeftHandThumb 
							{
								OFFSET	 0.00	0.00	 0.00
								CHANNELS 3 Zrotation Xrotation Yrotation
								End Site
								{
									OFFSET	 0.00	0.00	1.00000003353624
								}
							}
							JOINT L_Wrist_End 
							{
								OFFSET	 0.00	0.99999967115358	 0.00
								CHANNELS 3 Zrotation Xrotation Yrotation
								End Site 
								{
									OFFSET	 0.00	 0.00	 0.00
								}
							}
						}
					}
				}
			}
			JOINT RightShoulder
			{
				OFFSET	 0.00	 2.48462964506057	 0.00
				CHANNELS 3 Zrotation Xrotation Yrotation
				JOINT RightUpArm
				{
					OFFSET	 0.00	 1.24881979654096	 0.00
					CHANNELS 3 Zrotation Xrotation Yrotation
					JOINT RightForeArm
					{
						OFFSET	 0.00	2.59758046908119	 0.00
						CHANNELS 3 Zrotation Xrotation Yrotation
						JOINT RightHand
						{
							OFFSET	 0.00	2.45542024364365	 0.00
							CHANNELS 3 Zrotation Xrotation Yrotation
							JOINT RightHandThumb 
							{
								OFFSET	 0.00	0.00	 0.00
								CHANNELS 3 Zrotation Xrotation Yrotation
								End Site
								{
									OFFSET	 0.00	0.00	1.00000003353624
								}
							}
							JOINT R_Wrist_End 
							{
								OFFSET	 0.00	0.99999967115358	 0.00
								CHANNELS 3 Zrotation Xrotation Yrotation
								End Site 
								{
									OFFSET	 0.00	 0.00	 0.00
								}
							}
						}
					}
				}
			}
		}
	}
	JOINT LeftUpLeg
	{
		OFFSET	 1.2719394002717	 0.00	 0.00
		CHANNELS 3 Zrotation Xrotation Yrotation
		JOINT LeftLowLeg
		{
			OFFSET	 0.00	-4.3429100912261	 0.00
			CHANNELS 3 Zrotation Xrotation Yrotation
			JOINT LeftFoot
			{
				OFFSET	 0.00	-4.48767017425826	 0.00
				CHANNELS 3 Zrotation Xrotation Yrotation
				JOINT LeftToeBase
                {
                    OFFSET	 0.00	0.00	 1.51507020887566
                    CHANNELS 3 Zrotation Xrotation Yrotation
                    End Site 
                    {
                        OFFSET	 0.00	0.00	 0.75000010571191
                    }
                }
			}
		}
	}
	JOINT RightUpLeg
	{
		OFFSET	 -1.2719393604653	 0.00	 0.00
		CHANNELS 3 Zrotation Xrotation Yrotation
		JOINT RightLowLeg
		{
			OFFSET	 0.00	-4.3429100912261	 0.00
			CHANNELS 3 Zrotation Xrotation Yrotation
			JOINT RightFoot
			{
				OFFSET	 0.00	-4.48767017425826	 0.00
				CHANNELS 3 Zrotation Xrotation Yrotation
				JOINT RightToeBase
                {
                    OFFSET	 0.00	0.00	 1.51507020887566
                    CHANNELS 3 Zrotation Xrotation Yrotation
                    End Site 
                    {
                        OFFSET	 0.00	0.00	 0.749999965609858
                    }
                }   
			}
		}
	}
}
MOTION 
Frames:	20 
Frame Time: 0.02 
  -0.502505989074707 1.8361300659179687 7.625040283203125 -177.257 78.0389 170.958 10.0171 12.6084 7.15057 -16.505 38.0232 -4.13996 -27.0661 66.6334 37.778 20.963 -77.8415 24.334 -106.2293 4.91875 -8.50226 -19.2759 14.7669 -12.7915 0.0 72.5524 0.0 34.1301 -4.40338 -5.96927 0.0 0.0 0.0 0.0 0.0 0.0 118.3296 3.34584 -2.9308 34.4526 -4.52114 -18.1001 0.0 78.4779 0.0 -28.0663 7.08525 19.0039 0.0 0.0 0.0 0.0 0.0 0.0 50.3472 -61.9325 61.9128 0.0 82.0957 0.0 -1.98593 -5.9790993 9.46557 0.0 -14.533131 0.0 0.109457 -72.1334 0.265353 0.0 81.5235 0.0 21.9844 -4.863899 -3.03146 0.0 -23.415619 0.0 
  -0.49859798431396485 1.8726800537109376 7.565089721679687 -174.692 79.8081 168.772 9.53429 10.2162 6.26993 -15.9839 42.3811 -1.68235 -19.7273 63.8536 30.3023 18.108 -75.5224 21.7109 -105.8485 6.62232 -9.37867 -19.4835 16.2951 -13.4289 0.0 72.7322 0.0 34.2177 -4.63514 -5.46149 0.0 0.0 0.0 0.0 0.0 0.0 116.7238 2.8199 -0.507186 35.8421 -3.24729 -17.6408 0.0 77.4448 0.0 -28.282 7.54021 18.6981 0.0 0.0 0.0 0.0 0.0 0.0 48.9271 -61.5944 59.766 0.0 82.9099 0.0 -1.89448 -5.8801994 9.52746 0.0 -14.6195 0.0 -0.214534 -71.1671 -0.0779637 0.0 82.4733 0.0 21.8045 -4.6760006 -3.05506 0.0 -23.34319 0.0 
  -0.49632598876953127 1.9036599731445312 7.517139892578125 -171.41 81.641 165.861 9.85933 9.70406 6.06361 -16.6582 43.4287 -1.52579 -18.4996 64.2446 29.2338 20.5375 -75.2016 24.5201 -106.0922 6.96609 -8.85399 -18.4651 17.3116 -13.8535 0.0 72.5309 0.0 33.9617 -4.24022 -5.30924 0.0 0.0 0.0 0.0 0.0 0.0 117.4235 3.10906 -0.592676 35.7584 -2.27001 -16.9105 0.0 76.188 0.0 -28.55 8.05177 17.9741 0.0 0.0 0.0 0.0 0.0 0.0 47.174 -61.1384 57.2753 0.0 83.565 0.0 -1.95841 -5.59 9.56139 0.0 -14.70358 0.0 -0.532453 -69.9818 -0.404899 0.0 83.1875 0.0 21.7477 -4.3857994 -3.28158 0.0 -23.4275 0.0 
  -0.49395999908447263 1.9302499389648438 7.475830078125 -166.347 83.5001 161.141 10.5816 9.309 6.15592 -18.1153 44.4018 -1.29581 -16.8377 64.5351 27.9582 23.9121 -74.4087 28.2121 -104.7881 7.5087 -11.5937 -20.0219 16.5815 -10.9275 0.0 72.7024 0.0 33.7218 -3.46319 -4.93924 0.0 0.0 0.0 0.0 0.0 0.0 118.3068 3.31128 -0.634531 35.8782 -1.40664 -16.3199 0.0 74.9912 0.0 -29.1569 9.23179 17.587 0.0 0.0 0.0 0.0 0.0 0.0 45.3896 -60.5849 54.7285 0.0 84.2257 0.0 -2.10453 -5.0972996 9.54352 0.0 -14.792029 0.0 -0.862657 -68.629 -0.759377 0.0 83.7941 0.0 21.9163 -4.1352997 -3.48049 0.0 -23.50042 0.0 
  -0.492593994140625 1.9486500549316406 7.440679931640625 -158.44 85.3067 153.617 11.0759 8.61949 6.15486 -19.3313 45.788 -0.642441 -14.1199 64.2753 25.4868 26.1506 -73.3934 30.5836 -104.7637 8.02897 -11.1453 -19.298 17.5899 -10.8073 0.0 72.7547 0.0 33.3116 -2.91583 -5.15408 0.0 0.0 0.0 0.0 0.0 0.0 118.947205 3.32326 -0.362774 35.9635 -0.664753 -15.7645 0.0 74.095 0.0 -29.4973 9.96542 16.993 0.0 0.0 0.0 0.0 0.0 0.0 43.4269 -59.9606 52.0632 0.0 84.8299 0.0 -2.26599 -4.5641003 9.47571 0.0 -14.963595 0.0 -1.45294 -67.1647 -1.3389 0.0 84.3894 0.0 22.0895 -4.0445995 -3.57199 0.0 -23.520401 0.0 
  -0.4882680130004883 1.9638600158691406 7.408790283203125 -140.787 87.0229 136.297 12.3604 8.81047 6.74121 -21.6096 45.9596 -1.07359 -12.4559 65.0307 24.2832 29.8534 -72.5732 34.7178 -104.3974 7.88019 -9.97898 -18.3502 18.3496 -10.5234 0.0 72.8644 0.0 33.2495 -2.50266 -5.43542 0.0 0.0 0.0 0.0 0.0 0.0 120.746 3.61709 -1.10716 35.5134 -0.0752337 -15.098 0.0 73.3553 0.0 -29.6056 10.5579 17.1109 0.0 0.0 0.0 0.0 0.0 0.0 41.4036 -59.1693 49.3626 0.0 85.4279 0.0 -2.45532 -3.9946003 9.39137 0.0 -15.220935 0.0 -2.09611 -65.5324 -1.95738 0.0 84.9247 0.0 22.4293 -3.9521008 -3.49746 0.0 -23.42022 0.0 
  -0.4832509994506836 1.9741299438476563 7.379869995117187 -96.425 87.9828 92.2285 13.4218 8.50268 7.14748 -23.7979 46.9378 -0.545694 -9.46419 64.6118 21.6765 31.6952 -71.0036 36.5928 -103.6482 8.24203 -9.20024 -18.1289 19.0053 -10.0929 0.0 73.0961 0.0 33.1259 -2.10136 -5.39937 0.0 0.0 0.0 0.0 0.0 0.0 121.8985 3.61095 -0.98078 35.4146 0.431915 -14.6192 0.0 72.8396 0.0 -29.3755 10.8501 17.2836 0.0 0.0 0.0 0.0 0.0 0.0 39.4863 -58.1929 46.9105 0.0 85.9823 0.0 -2.61143 -3.5018997 9.29289 0.0 -15.467874 0.0 -2.78321 -63.8198 -2.61422 0.0 85.392 0.0 22.9379 -3.8085003 -3.26019 0.0 -23.5124 0.0 
  -0.48189899444580075 1.980279998779297 7.351320190429687 -49.1515 87.1385 45.16 13.4501 7.34692 6.74251 -24.682 49.0628 1.46879 -6.16271 62.4236 18.3411 30.3321 -69.1946 34.6295 -103.344 9.14855 -9.11421 -18.5375 19.8966 -9.52886 0.0 73.3259 0.0 33.3479 -1.91916 -3.94438 0.0 0.0 0.0 0.0 0.0 0.0 121.6135 3.30342 0.192394 35.5969 1.24316 -14.1978 0.0 72.4823 0.0 -29.3916 11.4975 17.4315 0.0 0.0 0.0 0.0 0.0 0.0 37.9474 -57.0836 44.8083 0.0 86.6238 0.0 -2.79845 -2.9944992 9.16748 0.0 -15.791865 0.0 -3.12841 -62.063 -3.00625 0.0 85.8254 0.0 23.2186 -3.6910992 -3.18967 0.0 -23.39972 0.0 
  -0.4820690155029297 1.9879400634765625 7.322479858398437 -30.5517 85.5584 26.7951 13.0309 6.37588 6.04696 -24.608 50.575 2.88044 -4.93629 60.7269 16.86 28.5383 -68.3896 32.1497 -103.523 9.85329 -9.68048 -19.4198 20.2452 -8.25 0.0 73.4865 0.0 32.4637 -1.7745 -4.2867 0.0 0.0 0.0 0.0 0.0 0.0 121.1511 3.16867 1.27478 35.4567 2.02845 -13.9453 0.0 72.0256 0.0 -29.748 12.191 16.7803 0.0 0.0 0.0 0.0 0.0 0.0 36.6496 -56.0511 43.0813 0.0 87.2155 0.0 -2.86726 -2.3962002 9.07315 0.0 -16.28029 0.0 -3.61495 -60.4807 -3.53862 0.0 86.3185 0.0 23.4648 -3.5657997 -3.10742 0.0 -23.33324 0.0 
  -0.48118099212646487 1.9991299438476562 7.291829833984375 -22.778 83.8511 19.2314 13.148 6.14326 5.85191 -24.733 50.8653 2.87495 -6.62265 60.3587 18.875 29.1617 -68.4777 31.4301 -103.5491 9.87431 -9.87624 -20.327 20.3709 -6.68886 0.0 73.512 0.0 31.71 -1.72109 -3.79295 0.0 0.0 0.0 0.0 0.0 0.0 121.5273 3.36871 1.19015 34.8585 2.90485 -13.3535 0.0 71.5621 0.0 -29.5862 12.4655 16.2696 0.0 0.0 0.0 0.0 0.0 0.0 35.6242 -55.154 41.6191 0.0 87.8496 0.0 -2.9587 -1.7210999 9.08482 0.0 -16.80632 0.0 -4.02368 -59.0051 -4.02332 0.0 86.7678 0.0 23.7559 -3.4599 -2.95483 0.0 -23.36585 0.0 
  -0.48134498596191405 2.0080999755859374 7.26031982421875 -18.067 82.2503 14.628 13.3848 6.01802 5.93135 -25.1569 50.8937 2.61246 -7.30952 60.2924 19.6837 29.683 -68.7021 31.4537 -103.6418 9.54175 -9.63714 -20.8086 20.797 -5.34146 0.0 73.4342 0.0 30.8115 -1.46888 -3.12318 0.0 0.0 0.0 0.0 0.0 0.0 122.2169 3.68097 0.684263 34.16 3.9028 -12.5815 0.0 70.9901 0.0 -29.85 13.3418 15.3928 0.0 0.0 0.0 0.0 0.0 0.0 34.8094 -54.224 40.5658 0.0 88.4524 0.0 -2.93917 -1.1856003 9.144 0.0 -17.15077 0.0 -4.34872 -57.7068 -4.31427 0.0 87.2518 0.0 24.024 -3.3906002 -2.7396 0.0 -23.32613 0.0 
  -0.4791680145263672 2.019850006103516 7.230859985351563 -15.1125 80.5689 11.8452 13.305 5.45349 5.55682 -25.3482 51.7911 3.44193 -6.58523 59.1086 18.7916 28.759 -68.4791 30.1293 -103.5621 9.83394 -9.90562 -21.7521 21.3025 -4.03378 0.0 73.4321 0.0 29.8168 -1.05395 -2.36523 0.0 0.0 0.0 0.0 0.0 0.0 122.0326 3.82957 1.07644 33.8838 4.81208 -11.7754 0.0 70.7196 0.0 -29.7999 13.718 14.8218 0.0 0.0 0.0 0.0 0.0 0.0 33.9088 -53.2958 39.3988 0.0 88.9822 0.0 -2.92923 -0.67090034 9.27029 0.0 -17.40375 0.0 -4.79485 -56.3238 -4.79174 0.0 87.6791 0.0 24.1514 -3.3199997 -2.52279 0.0 -23.08964 0.0 
  -0.4761949920654297 2.032720031738281 7.201959838867188 -13.1083 78.8977 9.97475 13.1483 5.1139 5.12313 -25.1899 52.4426 4.01994 -6.76152 58.2217 18.8042 28.371 -68.8599 29.1052 -104.0123 10.1763 -10.0436 -22.1477 21.7656 -2.86065 0.0 73.4123 0.0 28.7816 -0.655795 -1.41544 0.0 0.0 0.0 0.0 0.0 0.0 121.8705 4.00171 1.38464 33.4464 5.85063 -10.8607 0.0 70.3638 0.0 -29.5692 13.9172 14.2183 0.0 0.0 0.0 0.0 0.0 0.0 33.059 -52.3473 38.2742 0.0 89.4711 0.0 -2.89242 -0.23169994 9.4023 0.0 -17.58071 0.0 -5.17106 -54.9602 -5.20618 0.0 88.0575 0.0 24.2049 -3.2446003 -2.31006 0.0 -23.05014 0.0 
  -0.4697249984741211 2.0468800354003904 7.174420166015625 -11.64 77.2972 8.6308 13.4676 4.90504 5.04431 -25.7221 52.984 4.31531 -6.50292 57.5073 18.5176 28.7527 -69.0921 29.0099 -103.999 10.278 -9.86097 -22.4234 22.4269 -1.89186 0.0 73.361 0.0 27.6081 -0.447838 -1.07258 0.0 0.0 0.0 0.0 0.0 0.0 122.0927 4.28625 1.37562 32.9735 6.97817 -9.93817 0.0 70.0273 0.0 -29.2143 13.9981 14.2234 0.0 0.0 0.0 0.0 0.0 0.0 32.1988 -51.4443 37.1936 0.0 89.8904 0.0 -2.84563 0.15569973 9.6278 0.0 -17.75205 0.0 -5.58087 -53.6665 -5.6254 0.0 88.4004 0.0 24.1405 -3.1308994 -2.09971 0.0 -22.99982 0.0 
  -0.46308399200439454 2.0626400756835936 7.14760986328125 -10.8076 75.8107 7.92907 13.6979 4.58729 4.81976 -26.0331 53.5411 4.6918 -6.28358 56.8345 18.1855 28.9059 -69.395 28.5978 -104.0367 10.4043 -9.93889 -22.8312 23.1045 -0.684565 0.0 73.1849 0.0 26.5918 -0.266881 -0.531037 0.0 0.0 0.0 0.0 0.0 0.0 122.2166 4.57645 1.26639 32.3934 8.29518 -8.80992 0.0 69.737 0.0 -28.5918 13.9037 14.1963 0.0 0.0 0.0 0.0 0.0 0.0 31.5164 -50.6577 36.2575 0.0 90.2929 0.0 -2.75197 0.57719994 9.87761 0.0 -17.86854 0.0 -5.9381 -52.499 -6.05899 0.0 88.7125 0.0 24.0282 -2.9431 -1.949 0.0 -23.0693 0.0 
  -0.45846099853515626 2.0816799926757814 7.12322021484375 -10.1559 74.4436 7.40423 13.8085 4.21375 4.5197 -26.2595 54.127 5.05419 -5.99546 56.1391 17.7264 28.853 -69.7048 28.0168 -104.0462 10.4983 -10.2328 -23.2761 23.746 0.681325 0.0 72.9658 0.0 25.9211 -0.113144 0.087063 0.0 0.0 0.0 0.0 0.0 0.0 122.2876 4.93293 1.28409 31.8093 9.71618 -7.81402 0.0 69.347 0.0 -27.8149 13.9056 13.9775 0.0 0.0 0.0 0.0 0.0 0.0 31.0097 -50.0077 35.5367 0.0 90.6808 0.0 -2.70921 1.2451 10.1833 0.0 -18.13271 0.0 -6.27966 -51.4421 -6.50259 0.0 88.9612 0.0 23.805 -2.7273998 -1.87029 0.0 -23.09267 0.0 
  -0.45868698120117185 2.103300018310547 7.102069702148437 -9.79083 73.13 7.20131 13.6133 3.72589 3.93753 -26.1176 54.8355 5.56083 -6.04638 55.365 17.5596 28.4443 -70.0849 26.8815 -104.3718 10.6091 -10.7533 -23.5449 24.4446 2.25427 0.0 72.6709 0.0 25.6697 0.0755518 0.607826 0.0 0.0 0.0 0.0 0.0 0.0 122.1509 5.35343 1.43223 31.1605 11.3017 -6.90084 0.0 68.8927 0.0 -27.3141 14.0766 14.1661 0.0 0.0 0.0 0.0 0.0 0.0 30.741 -49.4904 35.0104 0.0 91.0965 0.0 -2.66119 2.2844 10.5405 0.0 -18.66949 0.0 -6.24336 -50.3289 -6.46232 0.0 89.0384 0.0 24.1951 -2.7029 -1.56163 0.0 -23.09474 0.0 
  -0.4608319854736328 2.1266400146484377 7.081890258789063 -9.5304 71.9752 7.13152 13.2037 3.19293 3.19592 -25.661 55.5309 6.20904 -5.96046 54.6223 17.1178 27.9912 -70.6955 25.5641 -104.406296 11.0501 -12.4727 -24.8291 24.3206 4.88369 0.0 72.6399 0.0 25.606 0.159032 1.32543 0.0 0.0 0.0 0.0 0.0 0.0 121.834 5.59318 2.22358 30.6313 12.6626 -6.50427 0.0 68.5566 0.0 -26.8733 14.1122 13.7724 0.0 0.0 0.0 0.0 0.0 0.0 30.6099 -49.272 34.6077 0.0 91.5504 0.0 -2.55104 3.7856998 11.0714 0.0 -19.41847 0.0 -6.30368 -49.4366 -6.6331 0.0 89.1758 0.0 24.1107 -2.5319004 -1.58337 0.0 -23.25284 0.0 
  -0.46586898803710936 2.1547999572753906 7.065349731445313 -9.5243 71.0472 7.34698 12.7564 2.70344 2.48513 -25.0144 55.9296 6.52652 -6.04185 54.3053 16.8849 28.0062 -71.4443 24.7434 -106.3207 10.5741 -10.4711 -22.3683 27.2258 4.73183 0.0 71.9109 0.0 26.0017 -0.241299 1.02957 0.0 0.0 0.0 0.0 0.0 0.0 121.7663 6.03891 2.19156 29.7011 14.2711 -5.51669 0.0 68.1737 0.0 -26.2214 14.3079 13.4952 0.0 0.0 0.0 0.0 0.0 0.0 30.8578 -49.4439 34.6342 0.0 92.0598 0.0 -2.6269 5.92496 11.7472 0.0 -20.4205 0.0 -6.29573 -48.7179 -6.82838 0.0 89.1805 0.0 24.0148 -2.3862 -1.66327 0.0 -23.397831 0.0 
  -0.4714860153198242 2.1814300537109377 7.046190185546875 -9.57191 70.1659 7.62078 12.1847 2.0459 1.61741 -24.3181 56.4995 7.03019 -5.64357 53.5984 16.0848 26.714 -71.6206 22.8516 -105.1526 11.3046 -12.6564 -25.2135 26.0945 7.40853 0.0 72.0212 0.0 25.3376 -0.0378291 0.955096 0.0 0.0 0.0 0.0 0.0 0.0 120.8917 6.465 2.62738 29.6602 15.6052 -5.09755 0.0 67.9895 0.0 -25.984 14.1785 13.2686 0.0 0.0 0.0 0.0 0.0 0.0 31.1986 -49.8403 34.6966 0.0 92.6699 0.0 -3.0117 8.29889 12.5956 0.0 -21.32562 0.0 -6.12536 -48.0917 -6.79438 0.0 89.254 0.0 24.0374 -2.2705002 -1.77729 0.0 -23.54207 0.0 
